<svg width="128" height="51" xmlns="http://www.w3.org/2000/svg"><g class="layer"><path d="M77.86 51.15h-.26l-.09-.03-.02-.25.08-.14.61-.18.23-.16.34-.35.21-.09.05-.04.03.01.04.26.08.16.02.08-.31.13-.27.31-.58.2zm-2.99-.9-.14.03-.3-.08-.06-.05.25-.14.2-.19.23-.02.14.04-.05.23zm4.3-.82-.25.1v-.21l.19-.26.18-.09.1.1.01.05-.26.1zm-9.55-2.63.13.13.45.25.08.1.03.17.09.13.21.02.22-.03.17.08.14.13.22.24.19.28.24.15.13.23-.08.2-.3.28-.16.06-.22.02-.34.17-.13-.09-.39-.06-.31-.12-.26-.22-.15-.23-.19-.21-.33-.14-.6-.41-.36-.04-.15.03-.15.01-.78-.19-.12-.1-.1-.14-.09-.14-.05-.15.1-.13.11-.09.43-.16.31-.05.36.01.53-.05.51.08.16-.06.25-.16.09.05zm13.82-.9.1.03.36-.17.06.03.07.08v.22l-.13.19-.35.02-.05.05v.12l.03.11.08.09.1.16.1.36-.2.16-.1.28-.34.27-.37.43-.3.23-.27.26-.22.18-.29.06-.42.04-.57.31-.32.14-.31.01-.29-.1-.11-.12.02-.16.1-.13.12-.11.07-.14-.33-.18-.02-.14.13-.36.08-.38.12-.25.47-.46.28-.23.17-.09.05.1.1.12.07.01.06-.02.41.04.1-.04.16-.18.11-.1.07-.22.01-.13.37-.1.2-.11.17-.16.51-.26.09-.07-.02.25zm-26.18-.8-.08.09-.22-.17-.06-.08.17-.11.06-.02.14.13zm20.68-.64-.09.17-.16-.05.04-.16.08-.09.22-.14.22-.02.14.04.04.06-.34.05zm-9.86.56-.11.02-.11-.04.05-.25-.07-.17.12-.13.03-.24.04-.07.07.07.03.05.06.02.12.01.03.1v.1l-.06.1-.15.11-.11.12zm10.81-1.09-.05.12-.77-.01.02-.16.22-.18.07-.06.23-.05.33.09zm-18.73.73-.36.58.13.09.07.09-.58.12-.25-.06-.14.02-.6-.11-.42-.14-.05-.1.03-.13.13.04.33.02.12-.05v-.38l-.04-.49.44-.4.24-.16.27-.1.69.22.11.06.09.09.05.15zm21.45-.8-.17.17-.11.3-.11.09-.23.06-.13-.3-.25.01.12-.27.12-.1H81l.08.11.04.02.36-.45.07-.01.06.02.05.06zm-1.01-.17-.4.08-.24.35h-.19l-.11.15-.02.07.01.06-.02.06-.07.07-.18-.1-.16.12-.06.03-.23-.14-.21.01-.07-.02.27-.26.36-.24.06-.09-.14-.03-.09-.03-.01-.06.23-.04h.16l.12.07h.08l.49-.28.2.06.14.08zm42.01.33-.14.04-.7-.09-.08-.11-.01-.06.16-.12.16-.19.24-.07h.09l.29.46zm-59.88-.06h-.07l-.12-.05.04-.12-.06-.19.02-.16.16-.08.33-.01.01.11zm4.25-.36h-.12l-.02-.11.04-.12.12-.05h.05l.09.11.02.05-.08.08zm15.44-.28.07.17.22-.09.21-.02.48.01.36.04.21.07.02.35-.1.07-1.83.26-.18-.08-.07-.09.19-.25-.09-.12.11-.2.22-.13zm9.12-.11.49.11.28-.01.06.1-.27.24-.57-.19-.09-.19zm-14.15 1.44-.39.1-.25.1-.23.12-.15.03-.27.01-.38-.02-.26.04-.72.32-.28.03-.24.08-.09-.13-.1-.09-.24-.02h-.24l-.24.29-.38-.06-.15.03-.15.06-.14.02-.15-.02-.56-.22-.65-.13-.65.05-.56-.12-.3.09-.29.13-.08-.14-.11-.12-.09-.19-.01-.21.03-.15.09-.13.05-.14.02-.15.13.07.12-.03.38-.16.37-.25.35-.09.2-.02.17.05.17-.02.18-.06.28.19.11.04.38.02.35.11.3.16.45.15.27.21.2.08.15.02.14-.03.18-.14.2-.06.18.01.32-.04.14-.03.15-.08.15.05.14.07.55.36.17.01.31-.08.09-.1.05-.15.08-.12.12-.11.13-.08.41-.14.29-.13.19-.24-.45-.1.09-.17.15-.09.2.04.17.13.08.49-.14.07-.09.08-.06.1-.26.18.1.23-.07.1zm22.68-.83-.25.09.17-.22.52-.51.19.1.25.02-.37.22-.38.1zm-35.42 0 .14.11.13-.01.27-.17.16-.06h.17l.17.03.16.12.06.2.07.06.09-.24.13-.07.15-.04.22.02.18.11.15.33v.3l.06.11.1.08.08.11-.07.12-.07.06-.2.05-.1-.02-.09-.08-.1-.03-.23.02-.21.07.03.11.17.05.05.05-.01.07-.07.01-.22-.09-.16.02-.54.12h-.15l-.08-.12.01-.31-.06-.08-.41.37-.12.1-.17.04-.17-.02-.59.23-.18-.03h-.18l-.63.25-.34.07h-.17l-.17-.02-.15.02-.14.1-.28.09-.29-.07-.25-.08-.23-.12-.06-.14.02-.17.09-.24-.06-.41.05-.19.09-.18.15-.07.19-.01.31-.17.28-.22.17.02.37.15.22.02.37-.02.15.09.06.22.09.07.11.06.26.36.25-.02.21.07.38-.22h.28l.08-.17-.17-.18-.2-.14-.11-.04-.12.01-.11-.02-.46-.33-.14-.18-.08-.21.05-.15.32-.14.14-.03.55.09.1.08.14.33zm-7.84-.46.28.15.4.44.04.12-.12.12-.29.19-.63.28-.11.14-.14.26-.03.12-.04.06-.07.04-.14.04-.15-.05.13-.17.01-.21-.1-.19-.15-.16-.28-.21-.31-.19-.31-.1-.34-.04-.11-.1-.2-.24-.06-.13-.03-.13.02-.13.08-.01.32.03.6.15.3.02.17-.04.43-.3h.11l.42.14zm40.39-.56-.17.26-.19-.02-.34-.35.02-.24.03-.08.13-.02.44.07.09.2zm-8.53-.81.04.14-.01.06-.33.04-.33.16-.16.17-.13.23-.45-.09-.4-.02-.17-.08-.19.01-.25.07-.36.19-.07.01.02-.29.1-.18.37-.43.31.09.36.03.41-.08.29-.2.41-.1.33.26zm1.74-.12-.18.06.05-.21-.01-.16.29.05v.13l-.03.05zm31.19 1.83-.67.37-.88-.07h-.31l-.52.09-.1-.07.1-.35.41-.93.49-.82.21-.21.29-.2.31-.16.7-.17.63.03.09.07.27.27.18.22.08.3-.27.52-.31.5-.48.4zm-20.23-.77-.05.03-.35-.04h-.2l.03-.21-.1-.16.14-.24v-.27l.15-.04.02-.15.17-.41.11-.09.14-.04.18-.24.1-.07.1-.18.15-.09-.01-.15.08-.08.23-.07.16.08.1.16-.26.19.13.49-.18.52-.13.16-.23.14-.07.13-.27.26-.08.22-.01.09zm1.84-2.25-.03.14-.12-.07-.12-.16-.18-.03-.12-.04-.08-.08.48-.03zm-49.31-.19-.04.11-.14-.03-.14-.18.07-.05.07-.02.1.02zm40.02.14-.13.07-.21-.15-.06-.06.14-.14.14-.04.08.06.05.06-.02.07zm-22.16-.18-.29.02-.09-.03-.02-.27.31.11.11.01zm-19.45-.04-.06.04-.47-.02-.31.23-.21.07h-.77l-.09-.03h-.07l-.04.04-.24-.03-.78-.2-.1-.19.12-.2.28-.29.56-.05 2.54-.02.28.24.03.08-.56.17zm4.3-.38-.23.05-.21-.1v-.13l.06-.13.31-.06h.17l.19.09.12.09.06.1-.34.01zm54.16-.62-.05.05-.07-.1-.01-.05.1-.16.09-.09h.11l-.03.12zm-82.57-.3-.18.06-.13-.06-.06-.08.19-.19.1-.05.1-.01.04.1zm82.68-.26-.15.03-.08-.23.13-.06.14.14zm.29-.32-.06.02v-.14l.07-.12.08-.07h.1zm-.79.02-.05.2-.04.22-.26.25-.16.38-.09.09-.35.17-.3-.21-.09-.18.13-.84.14.03.08-.01.03-.05-.2-.1-.03-.48.01-.18.14-.04.19.14.23.25.28.2zm-76.23-1.22.28.32.25.17.29.09.31.01.3.04.35.13.36.05.17-.02.16-.06.11-.01.1.06.25.27.27.25.07.13.18.6.21.17.28.05h.34l.33.02.78.14.31-.02.27-.14.24.09.66.17.32.04.37-.05.36-.01.18.05.17.07.14.03h.15l.27-.14.18-.26.14-.32.11-.34.08-.14.1-.13.13-.09.14-.05.39.03.08.09.43.57.08.05.45.04.12-.02.28-.12.15-.01.29.14.13.12.14.09.7.09.28.25.14.03.49-.03.34.03.3.06.13.35.11.36.06.12.29.13.12.11-.03.35.03.34.62.3.65.17.7.02.71-.06.36-.08.45-.12h.09l.88.39.07.06.1.29v.31l-.17.73-.01.2.02.2.17.43.1.13.31.22.02.12-.05.12-.35-.08-.21-.1-.12-.16-.18-.09-.33.03-.61-.16-.7-.26-1.23-.54-.34.01-.32.07-.34.13-.35.1-.26.04-.26-.03-.66-.13-.66-.08-1.7-.05-.48-.13-.8-.06-.63-.11-.63-.14-1.59-.73-.52-.19-1.61-.34-.24-.03-.59.02-.36-.1h-.32l-.48.11-.15.08-.19.18-.32-.01-.32-.04-.86-.16-.31-.1-.31-.15-.27-.19-.15-.07-.73-.2-.6-.07-1.23-.09-.27-.06-.23-.07-.12-.16.01-.2.09-.18.12-.18.08-.17-.9-.35-.71-.19-.31-.04h-.31l-.35.04-.34-.02-.16-.06-.17-.02-.16.04-.14-.01-.03-.16.08-.14.18-.15.1-.03.04.24.05.05.16.05.06-.01.28-.31.07-.16.13-.41.15.08.14-.05.08-.06.23-.96.19-.28.26-.23.13-.06.26.15.52.05.3.09.31.02.3.04.42.17.15-.02.15-.05.22-.18.1-.29.33.14.47.06zm46.8-.09-.02.13-.1-.15-.1-.08.01-.17.13.07zm-9.88.91-.12.46-.05-.16-.02-.43-.07-.21.04-.24-.01-.61.08-.28.16.36.04.18zm-21.92-1.37-.06.1-.27-.01-.04-.11.17-.2.12-.02.1.08zm56.38.11-.17.27-.12-.09-.07-.01-.04-.15.04-.33-.14-.37h.19l.05.11.06.04.19.36zm5.44-.4-.02.11v.19l.04.19-.12.19.12.28.01.14v.2l-.04.09-.08.26-.09.09-.06.02-.06.08-.56-.08-.23-.18-.22-.2-.04-.08-.25-.23-.06-.07-.01-.13.21-.03.21.01-.01-.11.13-.39-.33-.25-.06-.1.12-.07.26.09.33-.44.09-.09.05-.24.18-.03.13.03.08.15.03.13-.03.12.15.06zm-5.11.54-.23.25.22-.57.04-.29.2-.17.3-.87.07.02.09.08-.15.64-.41.45zM20.1 35.85l-.23.01-.42-.34-.07-.11.12-.1.12.01.49.21.09.11zm59.66-.58-.01.28-.11-.01-.09-.1-.03-.1.01-.07.05-.06zm-4.44.46-.18.08-.34-.32-.14-.26.03-.15.1-.13.05-.04-.02-.13.13-.07.15.01.1.18.11.05.06.18zm1.69-.47-.08.19-.15.14-.12.01-.13-.03-.23-.12-.06.13h-.18l-.07-.18.13-.51.19-.19-.02-.2-.16-.42.1-.22.44-.17.38-.21.12-.04.1.16.06.72-.41.58zm1.5-2.01.06.6-.02.16-.16-.23-.05-.04-.05.04-.05.03-.08-.01-.11.24-.01.22-.08.14-.04.5.03.13.12-.07.08-.01.27.18.15.14-.04.17-.19.17-.22.07-.16-.07-.05.03-.09.09-.08.11.03.12-.19.33-.11.1-.22-.11-.14.09-.11-.01-.16-.33v-.16l.16-.17v-.13l.07-.14.18-.19.1-.15V35l.07-.35.03-.14.05-.16.08-.32.01-.59.26-.49.26-.14.1-.02-.02.13zm29.16-.85.14.15-.33-.12-.48-.24-.03-.17.4.25zm-28.99-.37-.27.33-.19-.01-.23-.22-.07-.25v-.08l.15-.14.53.04.1.13zm14.93-1.48-.47.15.1-.27.06-.07.24.07zm-.8.25-.07.1-.17.07-.13-.01.04-.09-.03-.06-.1.02-.17.08-.21.16-.12-.08-.02-.12v-.05l.25-.22.29-.04.41-.21.18.01-.04.13-.07.1-.03.1zm1.25-.35v.11l-.02.04-.16-.04h-.11l-.09-.21.02-.05.21.06.07.02zm-34.51-.23-.11.48-.17-.28.2-.32.08-.06zm31.38-.42.06.12-.27-.08-.12-.12.12-.07.06-.02zm-31.72 1.54-.59.52-.1-.13.05-.53-.16-.33.01-.24.12-.43.15-.33.34-.22.08-.03-.02.4.07.15.03.13-.04.11.06.52.04.12-.08.16zm29.63-2.18.46.22.1.14.09.17.09.1.11.07.18.15.04.22-.04.46-.21.04-.19.06-.41.26-.2.05-.21.02-.15.07-.15.03-.39-.15-.38-.17-.56-.29-.1-.07-.09-.16-.25-.29-.06-.18-.02-.52.06-.11.11-.07.37.12.24-.12.7-.11.71.01zm3.16-.42-.14.23-.25-.01-.04-.03.29-.14zm-59.22.19-.05.06-.15-.03-.11-.08-.07-.07-.02-.08.15-.09.32.09zm1.65-.29-.12.07-.06-.07-.02-.08.05-.09.15-.01.07.03zm62.53-.1.64.31.34.05.56-.04.21.03.54.39.15.27.05.24.08.22.13.06.16.02.2.32.04.1-.15.8-.63-.3-.61-.34-.26-.13-.71-.29-.1-.1-.08-.14-.31-.18-.61-.02h-.23l-.09.03.02.09.01.2-.15.06-.38-.13-.34-.04-.3-.13-.39-.06-.04-.06.03-.09-.02-.09-.09-.03-.17.02-.18.08-.14.1-.21.27-.1.1-.35.04-.14-.02-.13-.07-.39-.49-.13-.1-.15-.09-.14-.04-.14.08-.07.15-.03.18-.04.1-.17.29-.14.17-.05-.02.07-.28v-.15l-.09-.17-.05-.17.66-.8.24-.19 1.04-.07.62.04.34-.02.22-.06.19.03.05.16.12.12.16-.01.29-.13.26-.19.16-.08.16-.01.16.01.16.04zm-82.31.89.11.41-.34-.28.01-.2-.04-.12-.21-.16-.15-.2-.07-.46.05-.1.13-.01.59.61.04.11-.01.21-.09.07zm21.84-.52-.05.3-.06.11-.24.14-.08.09-.22-.01-.03-.16-.07-.1-.23-.12-.06.03-.04.18-.46.12-.13.01.07-.23-.12-.19-.01-.23-.02-.1-.06-.05.12-.16-.02-.18.12-.19.07-.46.48-.1.1.08.56.11.4.27.21.38zm-22.46-.71-.2.22h-.33l-.07-.14.02-.34-.08-.11v-.04l.05-.19.07-.05.53.48zm95.89-1.73-.08.05-.03-.13.05-.16.05-.02h.06l.08.06zm-96.91.62.02.07-.46-.25-.22-.06-.19-.27.06-.13v-.18l.03-.07.14-.03.19.13.13.32.23.3zm73.57.3-.05.05-.17-.15-.11-.43-.1-.11-.11-.41.03-.11.14-.17h.11l.08.1-.04.44.25.55zM80.38 26l.05.12-.17-.01-.08-.21.02-.11zm6.11-.46.86.09-.12.11-.93.16-.33-.03-1.01.09h-.13l-.02-.16-.11-.11.16-.09.22-.03.56.04zm-8.06.08-.21.23-.02-.13.04-.11.06-.08.09-.04zm20.21-.35.03.16.17.15-.06.24-.06.04.03.11.07.08-.13.06-.09-.03-.15.08-.11.1-.32.05-.11-.1-.58-.12-.37-.25-.05-.08.72-.3.31-.08h.27l.33-.11zm-15.11.04.26.1h.1l.08-.12.06-.02.11.06.03.19.17-.03.13.06.05.05-.02.19-.51.03-.35.15-.49-.14-.55.24-.33.08-.29-.01-.24-.41.14-.47.1-.08.19-.04.51-.03zm29.48-.32 1.11.14.3-.02.63.06.53.18.92.04.28.05.21.13-.52.1-.24.1-.45.05-.38-.05-.27.06-.1-.09-.41-.1-.51-.2-1.06-.24-.05-.14zm-74.43.08-.32.11-.1-.26.21-.08.22.07zm-8.16.14.1.19.13.17.1.19.13.9.44.77 1.27.3-.21.12-.1.12-.08.12-.19.54.02.11.11.18.03.2h-.16l-.18-.04-.15-.08-.13-.09-.14-.08-.16-.05-.26-.15-.35-.11-.35-.09-.17-.22-.09-.28.09-.42-.09-.12-.12-.1-.16-.3-.06-.35-.23-.14-.29-.08-.13-.07-.59.13-.15-.03-.12-.1-.32-.1.01-.2.15-.15.35-.16.17-.13.03-.18-.06-.12.02-.14.11-.12.13-.11.36-.13.15.23.08.2.09.14.15-.2-.1-.35.27-.08h.27l.2.09.13.15zm49.26.09-.19.02-.13-.08.01-.41.12-.09.05.02.04.12.06.11.09.1zm12.78-.12-.17.11-.08.04-.42-.08-.48.02-.51.1-.29-.09-.18-.14.01-.16.17-.38.38-.28.15-.05.27.07.46.22.36.26.32.2zM78.6 23.82l.06.17-.1.15.11.29.28-.38.27-.05.16.06.1.08.06.14-.1.31-.18.14-.23.03-.11-.18-.15-.02-.1.39-.05.06-.13.05-.12-.11-.02-.06.17-.18-.09-.52-.13.1-.34.48-.26.21-.09-.11-.14-.32.06-.42.22-.28.18.02.52-.09zm-37.89.02-.56.29-.14-.02-.1-.1.07-.55.07-.16.39-.02.23.08.13.09.05.18-.03.11zm70.87-.18-.13.05-.16-.05-.14-.22.05-.16.17-.11.15.11.04.14.11.01zM11.11 25.51l-.26.01-.56-.33-.13-.15-.03-.2-.53-.77-.07-.18.21-.63.54-.16.18.11.06.29.31.51.1.28.08.12.03.1-.02.06.22.33.16.19.01.31zm89.35-1.29-.1.08-.34-.08-.18-.17-.12-.23-.07-.19-.03-.15-.1-.18.02-.07.63-.2.11.07.27.01.11.14-.08.61zm-.27-1.5-.07.14-.14.1-1.2.17.1-.1.05-.11.08-.05.12.02.06-.03.06-.02.07.02.11-.05.25.03.25-.02-.02-.14zm12.57-.35.59.11.22-.01.21.12.26-.05.15.04.49.42.24.28.36.24.26.08-.2.22-.39.12h-.15l-.31-.13-.24.03-.22-.17-.03-.25-.22-.57-.29.16-.34-.26-.09-.01-.02.04-.15-.08-.12-.18zm-22.69.36-.03.06-.29-.08-.08-.04.15-.39.13.01.12.38zm9.34-.7h-.16l-.29-.12.16-.11.11-.02.1-.06h.05l.11.05.08.09zm-24.59-.34.11.12-.07.14-.09-.03h-.26l-.09.01-.12.08-.07.01.05-.13.21-.2.14.03zm32.57.89.71.04.35-.03.35.04.14.07.25.21-.07.14-.04.3.12.28.2.28.17.3.03.14-.06.31-.06.16-.2.25-.11.28.07.34.04.35-.01.32.04.31.11.32.47.87.27.59.09-.33-.02-.37.1-.13.13-.07.18.08.04.14.02.33.14.63.19.03.21-.09.03.19v.36l.09.29.09.11.34.23.15.04.45.06.33.02.33-.09.2-.21.19-.23.65-.53.19-.26.18-.39.06-.08.65-.42.07-.15.09-.29.15-.28.1-.15.62-.13.65-.08.64-.26.28-.22.02-.14-.15-.26v-.11l.15-.11.57-.33.66-.33.53-.23h.3l.27.2.29.17 1.51.49.24.15.21.2.31.14.33.07.31.13.29.17.65.31.86.38.22.03.81-.02.13.07.14.1.12.02.92.08.14.07.13.1.08.28h.63v1.11l.01.57v8.77l-.09.3-.19.45-.04.36.16.28.16.18v6.23l-.14-.09-.39-.32-.35-.35-.23-.34-.25-.3-1.09-.9-.28-.3-.06-.08.03-.08.13-.15.22-.46-.23.28-.28.22-.41.02-.39.05-.37.14-.37.04-.19-.06-.11-.17-.06-.17-.03-.18-.15.29-.31.16-.42.34-.12-.07-.07-.13-.03-.13.08-.14.06-.15.09-.37.18-.21.12-.41.08-.15.04-.14-.11-.17-.18-.05-.13-.1-.14-.28-.1-.1-.16-.11-.13-.14.14-.1.19-.04.15.01.28.06h.12l.32-.1-.18.03h-.18l-.57-.18-.35-.19-.33-.37-.01-.07.24-.07.5-.08-.15-.19-.23-.17-.08-.3-.16-.18-.34-.3-.23-.31-.2-.63-.2-.47.05-.18.17-.12-.26-.01-.23-.09.13-.23.27-.14-.25.04-.24.06-.11.02-.11-.02-.06-.1-.01-.13.03-.23-.04-.23-.21-.1-.18-.16-.1-.06h-.13l-.12-.11-.11-.15-1.27-.68-.07-.19-.12.08-.12.04-.14-.11-.15-.07-.17.01-.16-.06-.16-.04h-.17l-.66-.21-.64-.33-.51-.14-.32-.18-.33-.15-.74-.15-.74-.1h-.27l-.23.03-.22-.01-1.24-.71-.21-.33.02-.19.06-.15.5-.05-.35-.04-.15.02-.29.13h-.16l-.22-.08-.22-.11-.35.1-.18-.16-.06-.18-.09-.08-.13.01-.18.07-.18-.02-.11-.11-.08-.16-.13-.11-.14-.09-.24-.2-.13-.27.02-.48.04-.17.23-.27.17-.27-.21-.03-.18.13-.08.12-.04.15-.02.5-.15.14-.23-.01.07.29-.09.28-.27.33-.02.14.04.17-.06.15-.42.46-.15.02h-.31l-.33.07-.15-.11-.13-.13-.09-.17-.13-.33-.1-.35.32-.43-.11-.38-.22-.33-.56-.46-.57-.44-.26-.09-.43-.03-.14-.05-.13-.16-.1-.19.27-.08.46-.22.26.01.71.12.21.11.21.06.48-.36.38-.48.24-.1.2-.04.21.05.41.17.32.07.23.02.12.15.14.06.03-.22.12-.26.23-.08.12-.02.08-.07-.02-.24-.3-.03.16-.21.15-.1.05-.1v-.12l-.59.24-.63.1-.37-.03h-.36l-.74.16h-.28l-.65-.07-.36-.08-.28.06-.27.01-.28-.19-.24-.23-.12-.17-.15-.12-.07-.16-.18-.6-.01-.44h-.29l-.27-.05-1.23-.41-.15.1-.17.05-.18.02-.17-.02-.17-.06.02-.12.12-.27.13-.11.17-.08.11-.15.18-.44.01-.15-.02-.15.02-.12.11-.06.46-.15.96-.21.24-.13.21-.21.23-.13.11-.13.12-.1.74-.27.33-.03.32.04.65.16.62.26.54.35zm-81.38-1.09.26.27.07.09-.13.15-.11.22-.06.04-.2-.08-.14.21-.09-.34-.21-.21.13-.21.04-.02.07.01.06.06zm64.81-.05.32.42-.21.39.15.22.41.02.09.08.07.1.05.14-.11.11-.23.1-.26-.15-.07-.13-.05-.05-.36.1-.09.01-.07-.19.08-.26-.24-.13-.23-.27-.01-.11.09-.2-.01-.15.13-.01.23.21.11-.2.1-.08zm-.89.49-.18.07h-.19l-.04-.29.06-.38.18-.06.28.08-.1.09.08.2zm-65.99-.41-.36.1-.41-.07.05-.17.19-.19.18.01.32.12.11.12zm75.99-.96.49.12.11-.02.7.31.11.15-.04.1.11.14-.23.21-.11.03-.12-.08-.22-.05-.26.09-.17-.07-.14-.19-.24-.12-.35-.4-.18.01.05.16.15.11.19.31.12.03.11-.01.16.12-.01.2-.41.08-.14-.14-.03-.27-.23.09-.09.09-.07.01-.15-.27-.44-.02-.29-.14.14-.16.03-.14.18-.08.2.07.19-.11.14.03.1-.07.38-.04zm-90.8 1.47-.17.13-.25-.13.08-.17.05-.25.15-.2.05-.23-.29-.63.14-.02.12.07.19.42.17.25-.07.34zm17.74-.99.08.05.1-.15.18.2.12.1.15.1h-.15l-.06.09-.04.02-.6-.32-.38.11-.26-.1-.08-.06.14-.18.13-.4.26.1.07.13-.02.04.17.07zm69.51.03-.12.01-.1-.16-.28-.18-.17-.31.65.51zm-5.88-.5-.01.08-.09-.12-.06-.02.06-.3.04-.06.05.21zm-63.89-.18.03.06-.13-.07-.08-.05-.06-.04-.29-.38.13.02.32.33zm-3.94-1.35-.31.02-.1-.04.04-.26.1-.16h.14l.16.24zm67.74-.28-.1.03-.03-.01-.03-.11.05-.19h.12l.05.03.01.14zm-.14-.41-.09.09-.09-.03-.06-.12.02-.09.08-.05.09.04zm-67.13.35-.06.04-.24-.36.06-.2.06-.05.13.12.1.13.08.16zm1.06-.38.01.08-.25-.16-.01-.12.03-.05.16.12zm1.15-.09-.17.08-.23-.26.01-.06.02-.04.04-.03.14.13.16.05zm-3.4.24-.05.11-.11-.08-.54-.12-.19-.01-.47-.14-.15-.07-.1-.09.03-.17.07-.1.05-.28.12-.12.23.21.26.18.15.09.46.18.17.1zm1.11-.84.02.15-.19-.03-.13-.18.11-.13.07-.05.07.17zm-.72.5-.08.08-.14-.02-.15-.1-.2-.17-.22-.15-.27-.09-.17-.03-.07-.04.06-.29.18-.02.59.28.19.14zm2.41-.87.18.12.14-.08v.11l-.03.1-.17.28-.29-.06-.07-.1-.02-.06.04-.05.03-.14h.12zm1.57-.1.02.21.16.1.04.16-.03.24-.15.29-.06.07-.2-.05-.07-.1-.03-.07.03-.06-.14-.06.09-.11-.06-.16-.41.1h-.12l-.02-.17.02-.07.31-.22.19-.04.2.04zm-6.05.63-.13.09-.16-.14-.13-.19-.07-.2-.06-.32-.01-.24.08-.13h.05l.23.14.15.24.09.07.02.22-.06.25zM6.39 16.47l.6.78.25.11.33.35.08.13-.08.25-.08.71-.15.18-.39-.09v-.12l-.22-.54-.4-.3-.16-.02-.1-.31-.2-.36-.61-.66h.46l.22-.16.06-.13.03-.03zm14.06.01.02.36-.21-.09-.16-.14-.26-.11-.32-.03-.23-.1-.16-.16-.01-.08.01-.06.06-.05 1.2.32zm62.85 1.3-.53.47-.16.23-.15.25-.21.27-.24.24-.12.07-.3.13-.17.05-.33.02-.97.19-.32.02-.32-.01-.61-.04-.12-.03-.24-.25-.27-.19-.24-.02-.25.02-1.76.01-.62.04-.62.08-.33-.04-.33-.09-.25-.04-.25.01-1.16.15-.29-.01-.59-.19-.34-.04-.33.05-.32.17-.11.11-.33.39-.18.29-.14.35-.11.36-.07.3v.31l.05.35.09.34.1.26.4.61.08.09.44.17.26.22.24.61.18.31h.17l.19-.02.34.04.33.08.32-.18.18-.36.18-.26.43-.5.25-.23.16-.08.16.03.13.14.16.1.33.06.32-.04.35-.16.13-.1.1-.13.3-.1h.7l.36.04.64-.04-.01-.1-.12-.09-.03-.08.12-.05.41-.12.43-.08.31.06.27.16.11.16.04.2-.1.51-.05.12-.22.06-.21-.07-.21-.26-.29-.1-.41.08-.14.08-.12.1-.24.28-.19.31-.42.48-.48.41-.24.16-.26.11-.84.28-.22.2-.17.27-.19.09-.22.03-.16-.05-.34-.15-.11.12-.02.19.17.07.26.21.21.29.13.07.29.09.12.1.22.25.35.59.12.31.19.26.59.45.03.12-.03.15.04.13.21.25.05.17-.23.2-.01.3-.14.41-.03.13v.13l.1.11.11.09.16.05.14.08.27.32.14.08.08.11-.01.17.13.1.11.18.17.05.08-.05.05-.08.14.03.08.12.05.16.02.18-.01.33-.07.12h-.15l-.28-.14-.01.1.02.09-.14.04-.16-.02-.4.02-.75.2-.26.13-.16.22-.02.15.07.33-.1.11-.34.05-.48-.09-.28-.09-.16-.07-.21-.22-.08-.28.15-.83.05-.11.07-.09.08-.16.02-.17-.23-.22-.34-.09-.29-.18-1.12-1.01-.06-.1v-.17l.04-.16.37-.55.05-.11.04-.44-.01-.36-.04-.36-.17-.22-.31-.07-.32-.01-.32.07-.31.18-.56.38-.23.22-.02.29.13.29.17.25.09.29.12 1V31l-.15.3-.06.65.07.92.1.56-.05.31-.26.66-.08.36-.01.15.31.69.08.27.03.29-.33-.14-.15.01-.16.04-.35.04-.35.01-.12.05-.25.18-.15.08-.14.01-.44-.23-.27-.25-.24-.27-.05-.31.09-.32.12-.34.24-.56-.01-.38.08-.31.14-.3.05-.28.03-1.09-.03-.1-.33-.64-.04-.11v-.17l.03-.17.01-.15-.08-.11-.13-.11-.16-.05-.35.05-.68.17-.21-.15-.15-.24-.1-.33-.06-.34.03-.32.1-.32-.08-.22-.13-.23v-.13l.07-.1.13-.09.15-.06.14-.09.38-.32.12-.28.01-.35.09-.33.2-.3.22-.28.08-.3-.11-.46.04-.21-.04-.24v-.25l.14-.46.42-.94.41-.5.16-.13.21.24.16.27v-.25l-.04-.24-.17-.56-.14-1.1.04-.11.14.02.15-.1.08-.17-.15-.41-.01-.14.29-.58.24-.21.1-.13.06-.35.13-.13.15-.09.21-.25.11-.3.07-.03.08-.01.12.27.14.11.28.08.24-.1.07-.13.09-.12.15-.12.12-.13.14-.32.18-.29.12-.1.15-.06.17-.04.16-.01.35.18.21.04.21-.01.13.03.1.08.1.16.11.14.1.07.12.04.77-.06.68.16.92.03.32.1.3.12.37.22.14.05.15-.02.19-.2.15-.04.15-.01.59.04 1.6.25.23-.04.96-.48.39-.45.34-.13.12-.2.07-.25.12-.07.29-.07.12-.07.2-.3.24-.27.12-.08.34.04.15.12.2.39-.04.07-.22.2-.07.08-.25.55-.17.27zm-65.05-3.02.15.23.03.14-.11.17-.04.26-.33.21-.28-.05-.1-.07-.18-.4.02-.33.11-.13.27.02.27-.19zm73.04 3.43.2.06.21-.02.11-.12.03-.16.1-.31.25-.2.17-.03.13-.09-.03-.22.02-.22.18-.23.57-.33.32-.12.42-.03.04.12-.04.18.08.27-.04.73-.1.1-.43.25-.47.2-.14.09-.11.2.01.2.38.26.6.25.12.11.08.2.03.22.14.1.2.05.14.1.1.15-1.01-.34-.26-.15-.32-.02-.32-.04-.32-.13-.34-.03-.17.09-.06.19-.04.2.08.26-.01.15-.07.28.25.84.32.66.46.68.23.24.25.21-.41-.06-.13-.23-.52-.23-.1-.13-.34-.66-.1-.12-.32-.22-.14-.16-.05-.22.04-.23-.02-.32.01-.32.07-.39-.11-.14-.15-.13-.17-.29-.05-.34.01-.19.07-.18.1-.15.02-.14-.25-.21-.26-.6-.02-.32.33-.6-.01-.29.07-.17.03-.19.17-.4.28-.34.48-.48.18-.1.2-.07.02.12-.04.1-.35.49-.04.11-.01.2.17.12.18.25.03.33.01.35-.04.35-.07.12-.28.35-.66.42-.05.1v.12l.12.13zM5.97 14.76l-.01.07-.29-.3-.33-.16.13-.04.27.04.11.05.11.14zm87.34.07-.44.05-.11-.13-.11-.6.31-.48.4-.29.27-.07h.1l.24.34-.19.7-.21.35zm-8.55-1.67-.03.06-.1-.33.08-.16.13.06.03.06-.12.15zm-81.23.81-.18.03-.17-.06-.14-.16-.75-.47h-.24l-.16-.12-.2-.04-.21-.31-.05-.17.16-.08.09-.17.26.07.28.3.29.12.08.05.14.17.67.41.07.14.05.13zm34.87-1.52-.14.14-.15-.09.23-.29.05-.02zm-8.78.12-.12.01-.03-.08v-.15l-.01-.11-.03-.09v-.14l.11.07.08.07.1.05.07.03.05.02-.08.2zm1.47-.82v.19l-.2-.11-.03-.22.06-.07.13.04zm31.92-.35-.03.09-.24-.22-.07-.16.03-.13.25-.01.13.08zm22.45-.43-.07.08-.34-.15.02-.25-.05-.12-.09-.13-.04-.13.04-.13.21.17.12.28.16.26zm3.35-.93-.04.03-.1-.07-.07-.09.01-.08.07-.04.15.12v.07zm-.37-.3.01.12-.17-.27-.07-.31.14.11.15.23zm-24.79-.87.09.27.01.1-.52.14-.31-.33.07-.13.27.01zm-26.86 1.39-.38.1-.22-.14.24-.18.08-.01.06-.04.02-.07-.44-.12-.12-.1-.12-.26.01-.17.55-.44.13-.05.02.19.39.46.02.31-.02.11zm23.12-1.87.1.06.14-.01.17-.04.41.04.72.01.49.11.49.29.24.06h.11l-.03.03-.19.08-.09.16.27.24.01.17.21.14.25.23.01.07.08.11.05.12-.18.12-.24.03-.17-.12-.16-.15-.05.19-.12.1-.46-.03h-.32l-.33.05.17.02.14.06.51.46.11.17-.18.34.08.14.2.08.24.17.17.02.12.1v.16l.07.15-.19.06.19.04.17.08-.09.08-.07.09.08.05.23.09.1.08.05.22.23.35.42.46.09.17v.15l-.07.13-.24.16-.19.2-.02.08-.26.09.12.07.09.09.18.29.43.46.21.17.89.62.47.27.6.63.31.14.06.17-.26.27-.38.13-.62.07-.63-.09-.32-.08-.29-.15-.22-.31-.29-.16.11.18.07.19-.04.21-.11.16-.2.12-.21.1-.09.07-.54 1.08-.09.29-.16 1.22v.34l.24.65.02.33.05.15-.03.12-.12.07-.46.2-.33.16-.26.23-.21.29-.19.21-.25.1-.18-.01-.15-.1-.1-.19-.06-.2-.04.15.01.15.08.16.04.16-.05.17-.11.14-.29.14-.16.13-.03.22-.08.13-.11.09-.41.23-.09.08-.07.12.22-.02.2.02.01.22.07.16-.08.36-.31.25.15.05.14.08.31.06.11.25-.05.31-.06.28-.22.08-.14-.05h-.13l-.1.09-.03.14.19-.07-.01.36-.05.35-.07.2-.11.15-.18.05-.17-.11-.03.13.05.12.24.28-.15.06-.1.1-.05.14-.26.32-.12.24-.04.25-.13.2-1.95.87-1.59.73-.11-.05-.08-.11-.05-1.14-.2-.58-.03-.33-.22.29-.14-.03-.15-.07-.11-.1-.01-.12.12-.37-.14.2-.16.16-.17-.02-.14-.08-.05-.12-.07-.02-.35.33-.46.17h-.25l-.2-.1.01-.25-.02-.24-.06-.14-.12-.05-.12.02-.32.12-.12-.01-.07.06-.87-.87-.17.7-.6.38-.44.22-.44-.08-.45-.14-.44.17-.48.41-.14.06h-.14l-.1-.05.04-.32v-.31l-.03-.7-.04-.14-.14-.19-.19-.14-.1.1-.09.14h-.37l-.35-.11-.31.06-.6.28-.32.04-.17-.06-.11-.15.06-.14.13-.11-.25.09-.21.14-.09.09-.1-.05-.26-.31-.55.11-.08.04-.13.11-.13-.06-.07-.11-.02-.66-.28-1.27-.08-.65-.06-.15-.32-.23.01-.34.16-.28.04-.32-.05-.36-.1-.34-.13-.26-.18-.23-.24-.25-.3-.18-.64-.21-.33.01-.13-.08-.08-.11.03-.21.11-.14.16-.04.02-.08-.33-.17-.27-.23-.08-.13-.03-.16v-.35l.08-.22.04-.12.09-.37.17-.11-.03-.07-.07-.05-.11-.12-.09-.14-.21-.24-.36-.29-.07-.49-.04-.73.03-.33.11-.62.21-.2.16-.05.12-.08-.1-.01-.09.03-.15.02.13-.56.05-.16.26-.31.3-.27.12-.32.17-.29.71-.29-.26.37.03.13.06.12.18.08.06.45.23.26.23.23.17.12.18.16.13.16.14.13.21.13.56.54.24.16.17.16.13.05.3-.04.91-.39.16-.03.3-.06.52.02.55.13h.18l.17-.08.24.03.22.04.11-.04.32-.28.43-.08.14-.28.11-.27.05-.28.19-.11.25-.1.38-.12 1.31-.02.13.05.02.14-.02.11.05.07h.17l.16.07.66.23.27.07.16-.02.31.2.16-.07.22-.14.21-.19.19-.15.27-.06.36.01.42-.06.31-.08.35.14.1-.05.06-.13.18-.28.08-.2.07-.37.05-.08.13-.06.14-.07.04-.11.05-.13-.04-.1-.08-.09-.08-.31.02-.14.05-.11.14-.05.38-.23.33-.27.18-.13.08-.08v-.12l-.14-.13-.14-.06-.01-.15v-.1l.05-.09-.02-.1-.01-.14.09-.15.21-.22.16-.14.17.09.21-.04.2-.08.11-.26.01-.12-.02-.1.07-.38.01-.05.13-.24.01-.15-.07-.37.05-.28.02-.57.08-.11.08-.29.15-.32.29-.16.15-.23.07-.04h.1l.35.16.32-.18.28-.02.24.02.13.08.13.05.28-.17zm28.8.91-.11.06-.18-.02-.02-.15.18-.25.13-.27-.13-.07-.13-.17-.01-.2.11-.37.15.03.15.16.06.3.1.23-.21.31zM3.61 5.95l.34.03.64-.15.35.01.34.11.29.06.73-.08.14.02.13.07.11.1.34.36.56.45.17.29.09.32.06.07.64.62.07.26-.09.36.18.28.62.27.37.19.08.12.05.14.21.21.25.14.79.36 1.04.75.59.36.49.55.18.26.15.28.29.41.51.5.13.16.13.22.16.21.19.19.22.14.23.05.37.36.2.12-.03-.29-.17-.25v-.15l.03-.13.14-.12.16-.03.31.11.51.43.21.25.16.35.13.36.2.18.28.06.3.03.29.11.66.5.21.23.17.28.11.33.08.34.04.08.42.41.23.18.27.08.79.1.28.14.23.24.1.24-.16.21-.62.33-.67.23.65-.08.32-.09.3-.15.3-.19.47-.27.18-.05.2.02.19.07.28.26.26.28.2.32.12.35-.22.19-.33.13-.45.35-.05.13.09.09-.11.25.26.16.04.13-.22.19.02.12.26.5.13.11.4.25.61.26.34.12.39.09h.17l.28-.04.06.1.13.49.06.31.09.66.11.28-.01.33.15.29.3.18.32.15.15.15v.22l-.05.17-.11.14-.33.28-.06.13-.05.31.06.15.13.01.11-.08.4-.42.1-.08.16-.06.15-.03.73-.01.31.07.28.14.24.17.89 1.11.41.61.03.15.01.16-.07.12-.37.41-.05.12-.11.45.02.33.12.14.1.15-.01.13-.24.67-.03.12.16 1.09.01.3-.03.37.02.61-.2 1.86-.04.12-.15.28h-.2l-.17-.05-.11-.11-.06-.13-.09-.12-.49-.34-.13.06-.49.42-.13.07-.17-.05-.26-.13-.81-.45-.05.14-.01.2.16.49.02.21-.15.04-.08-.01-.34-.28-.31-.32-.36-.42-.26-.2-.23-.23-.66-.86-.17-.13-1.03-.6-.2-.15-.26-.25-.28-.22-.62-.35-1.07-.89-.47-.51-.51-.83-.17-.21-.87-.61-.48-.38-.19-.21-.46-.75-.14-.25-.17-.23-.28-.18-.24-.21-.49-.68-.16-.27-.11-.29.02-.58-1.04-1.78-.26-.55-.24-.76-.05-.08-.57-.69-.19-.22-.25-.2-.19-.24-.39-.79-.15-.21-.2-.16-.74-.3-.27-.16-.22-.24-.13-.3-.15-.63-.35-.96-.39-1.29-.26-.58-.3-.46-.09-.1-1.34-.82-.23-.12-.24-.07-.35-.05-.27-.21-.1-.38-.07-.51-.06-.3-.07-.18-.56-.36-.22-.28-.19-.31-.16-.24-.62-.84-.21-.22-.26-.15-.78-.16-.22-.14-.38-.48-.22-.24-.68-.53-1.15-1.12-.24-.28-.17-.29-.15-.31L0 5.8l.04-.17.08-.18L.1 5.3l-.05-.15.01-.14.15-.07.32-.11.34.02.32.04.3.08.29.18.53.46.29.16.33.08zM.44 4.32l-.06.08-.16-.04-.19-.26.07-.05.11.03.22.06.02.09z"/><path d="m61.56.52-.17.14-.06-.17.01-.23.24-.22.32-.04.05.17-.04.2-.07.1zm1.22 8.4-.11-.01-.24-.06-.49-.29-.49-.11-.72-.01-.41-.04-.17.04-.14.01-.1-.06-.11-.03-.28.17-.13-.05-.13-.08-.24-.02-.28.02-.32.18-.35-.16h-.1l-.07.04-.15.23-.29.16-.15.32-.09.29-.07.11-.02.57-.05.28.07.37-.01.15-.13.24-.02.05-.06.38.02.1-.01.12-.11.26-.2.08-.21.04-.18-.09-.16.14-.2.22-.09.15v.14l.03.1-.05.09v.1l.01.15.14.06.14.13v.12l-.08.08-.18.13-.33.27-.38.23-.14.05-.05.11-.02.14.08.31.08.09.04.1-.05.13-.04.11-.14.07-.13.06-.05.08-.07.37-.08.2-.18.28-.06.13-.1.05-.35-.14-.31.08-.42.06-.36-.01-.27.06-.19.15-.21.19-.22.14-.17.07-.3-.2-.16.02-.27-.07-.66-.23-.16-.07h-.17l-.05-.07.02-.11-.02-.14-.13-.05-1.31.02-.38.12-.26.1-.18.11-.05.28-.11.27-.14.28-.44.08-.32.28-.11.04-.22-.04-.23-.03-.17.08h-.18l-.55-.13-.52-.02-.3.06-.16.03-.91.39-.3.04-.13-.05-.17-.16-.24-.16-.56-.54-.21-.13-.14-.13-.13-.16-.19-.16-.17-.12-.23-.23-.22-.26-.06-.45-.18-.08-.06-.12-.03-.13.25-.37.19.39.07.08.41.27.33.13.37.05.37.01.14-.02.15-.05.14.06.77.42.3.07.32-.03.12.04.45.33.13.04.22-.03-.28-.14-.19-.11-.08-.2.05-.21.18-.14.12-.15.05-.46.08-.23.15-.22.04-.21-.16-.16-.04-.28.04-.23.09-.16.15.11.16.09.15-.01.11-.04.02-.11-.03-.21.01-.38.19-.31.31-.2.29-.1 1.1-.17 1.74-.44.51-.17.19-.08.16-.13.27-.38.5-.61.36-.5.74-.73.6-.68.08-.12.1-.37.01-.18-.02-.17.08-.08.11-.05h.03l.09.07.21.11.15.14.1.18.08.16v.15l.1.11.26.02.09.15.18.25.17.18.1.07.13-.04.2-.16.14-.21.1-.27-.08-.04.14-.2.02-.11-.06-.1-.08-.1-.03-.25-.06-.32-.03-.14.1-.1.23-.13.22-.16.23-.12.01.22-.01.36.07.31.16.54.18.07.21.05.12-.02.08-.03.03-.05-.14-.21-.03-.49-.11-.33-.17-.33-.08-.09.66-.09.15-.1.26-.22.1-.13.07-.28-.32-.17-.13-.21-.01-.23.39-.43.13-.11.06.16.17.04h.16l.16-.01.22-.21.12-.32.39-.44.14-.34.08-.35 1-1.1.13-.17.59-1.11.07-.03.16.1.05.35-.02.16-.1.23-.05.23h.07l.28-.15.29-.38.17-.34.14-.14.29.08.06.06-.02.24.03.14.11.3.24.18.33.11.31.17.1.11.07.13.07.21v.22l-.22.21.09.35-.01.2-.08.17-.32.16.89-.16.22-.09.3-.22.16.19.15.34-.12.09-.39.12-.01.05.12.18.16-.02.32-.12.3-.18h.14l.15.04.29.12.16.09.14.13.09.26.33.09.68.37.13.03h.13l.36-.04.13.05.09.13.03.16-.01.18-.04.13-.08.11-.24.16-.62.22-.68.17-.34-.01-.47-.15-.17.02-.17.07-.21.45.39.44.67.47.09.11-.03.15-.1.08-.14.05-.38.07-.38.06-.31.08-.31.1-.32-.03-.43-.21-.12-.02-.14.11-.13.29zm-43.43-5.8.49.1.18.09.55.87.71.61.31.23.23.11.33.32.28.41.61 1.16.11.5.04.77-.14 1.17-.16.58.03.27.23.42-.07.4.04.33-.01.91.12.27.15.17.77.55.06.2.38.69.7 1.5.2.67-.02.19-.09.07-.21.07-.17-.13-.06-.1.02-.12-.07-.11-.17-.14-.09-.12.02.2v.27l-.21.02-.28-.08-.34.07-.41.33-.19.01-.15-.28-.07-.19-.13-.14-1.29-.68-.47-.18-.51-.52-1.13-.58-.71-.56-.31-.34-.73-.31-.32-.36-.15-.07-.16-.13.16-.35-.06-.37-.09-.31-.52-.61-.25-.43-.49-.42-.19-.25-.19-.28.12-.1.11-.06-.1-.21-.28-.36-.13-.41v-.78l-.4-1.1-.34-1.52.06-.53-.08-.58-.23-.56-.29-.39-.11-.33.05-.13.07-.43.04-.09.11-.04.13.01.23.37.61.24.19.05.24-.09.11.06.11.09.06.27.16.24.33-.04.11.04.07.01.06.21.03.37-.03.22-.23.31-.03.21.12.13.16.14.09.1.09-.01.12-.08.11-.18.08-.15.41-.18.43-.16.06.02.06.07.14.23.08.05.12.02.2-.03.23-.12.12-.25.05-.19.34-.32.03-.25zm-6.32-.63.2.3-.1.13-.05.04-.12-.04-.12.11-.11.03-.1-.21-.14-.08-.03-.15.18-.02.11.05.2-.1zm1.23 3.28-.07.08-.2-.05.04-.46.11-.05.18.08.08.08zm49.39 3.1-.39.06-.28-.01.05-.1-.01-.13.13-.03.15.03zm-46.5 3.35-.14.05-.01-.08.03-.1.1-.09.05.05zm8.15.71-.13.03-.08-.02-.05-.11.12-.25.04-.04.11.27zm20.12.89-.09.03-.13-.1-.03-.84.09-.08.06.01.07.16-.01.37.01.33z"/></g></svg>